<?xml version="1.0" encoding="UTF-8"?><svg xmlns="http://www.w3.org/2000/svg" viewBox="0 0 453.75 700.67"><defs><style>.cls-1{opacity:.3;}.cls-1,.cls-2,.cls-3,.cls-4,.cls-5{stroke-width:0px;}.cls-1,.cls-2,.cls-4{fill:#3f2c26;}.cls-1,.cls-2,.cls-5{mix-blend-mode:multiply;}.cls-2{opacity:.4;}.cls-3,.cls-5{fill:#cfc9be;}.cls-6{isolation:isolate;}</style></defs><g class="cls-6"><g id="Calque_2"><g id="Calque_1-2"><polygon class="cls-3" points="103.49 221.15 75.64 221.15 0 96.51 103.49 96.51 103.49 221.15"/><polygon class="cls-5" points="103.49 221.15 75.64 221.15 0 96.51 103.49 96.51 103.49 221.15"/><path class="cls-4" d="M336.95,100.62s4.47.16,12.29.43c7.89.35,19.36.54,33.98,2.37,3.57.35,7.6,1.17,11.58,1.8,4.19,1.01,8.34,1.66,12.95,3.3,4.47,1.26,9.3,3.36,14.1,5.64,2.42,1.42,4.85,2.92,7.26,4.45,2.38,1.68,4.68,3.79,6.97,5.77,4.4,4.33,8.31,9.48,11.03,15.1,1.65,2.77,2.36,5.65,3.38,8.5.46,1.44.95,2.91,1.33,4.32l.7,4.23c1.18,5.73,1.09,11.01,1.2,16.43l.02,1.01-.03.94v.1l-.02.21-.03.4-.2,1.68-.36,3.31-.78,6.64c-.54,4.45-1.07,8.87-1.59,13.29-.79,4.55-1.59,9.1-2.4,13.59-1.62,8.94-3.06,17.86-4.79,26.19-1.82,8.26-3.56,16.25-5.24,23.78-1.73,7.55-3.09,14.72-4.85,21.24-6.99,26.03-11.66,43.39-11.66,43.39l-.41,1.59c-1.78,6.58-8.52,10.46-15.09,8.7-6.56-1.76-10.45-8.51-8.67-15.08.04-.21.11-.43.19-.64,0,0,.32-1.04.98-3,.6-1.98,1.65-4.83,2.7-8.54,1.04-3.71,2.48-8.18,3.77-13.4,1.34-5.18,3.01-11.03,4.44-17.49,1.5-6.42,2.81-13.45,4.02-20.92,1.18-7.48,2.66-15.33,3.74-23.52.99-8.12,1.6-16.33,2.45-24.75.27-4.21.56-8.44.82-12.69.03-4.44.06-8.86.1-13.32l.02-6.67-.07-3.34-.03-1.65-.02-.43-.02-.2v-.11c-.04,1.63-.02.41-.03.75l-.12-.66c-.65-3.43-1.06-6.96-2.22-9.63l-.68-2.13c-.27-.62-.67-1.14-.97-1.72-.69-1.04-1.01-2.38-1.95-3.04-1.45-1.72-3.11-2.75-4.75-3.69-1.06-.37-1.78-.84-2.79-1.21-1.12-.28-2.17-.6-3.15-.94-2.58-.38-4.9-.76-7.79-.83-2.53-.28-5.8-.03-8.48-.07-3.1.27-5.8.46-8.82.91-5.78.68-11.39,1.68-16.49,2.82-5.05,1-9.61,2.14-13.4,3.13-3.73.88-6.91,1.85-8.98,2.42-2.06.59-3.2.91-3.2.91-16.21,4.58-33.08-4.86-37.69-21.08-4.59-16.24,4.84-33.12,21.06-37.7,3.07-.88,6.18-1.26,9.21-1.14l7.45.25Z"/><path class="cls-2" d="M378.24,102.85c-12.24-1.32-22.03-1.49-29-1.8-7.83-.27-12.29-.43-12.29-.43l-7.45-.25c-3.03-.11-6.13.27-9.21,1.14-16.22,4.58-25.65,21.46-21.06,37.7,4.61,16.22,21.47,25.66,37.69,21.08,0,0,1.14-.32,3.2-.91,2.07-.57,5.25-1.55,8.98-2.42,3.79-.99,8.35-2.13,13.4-3.13,4.88-1.09,10.23-2.04,15.76-2.71v-48.26Z"/><polygon class="cls-3" points="375.9 95.56 225.76 50.65 197.45 50.65 47.33 95.56 99.19 329.69 47.33 659.67 375.9 659.67 324.04 329.69 375.9 95.56"/><path class="cls-3" d="M222.12,50.65h-21.03s-14.01-37.11-6.41-45.84c5.57-6.41,28.31-6.41,33.88,0,7.58,8.73-6.44,45.84-6.44,45.84Z"/><polygon class="cls-5" points="253.58 330.82 215.04 330.82 208.21 330.82 169.65 330.82 146.08 659.67 277.15 659.67 253.58 330.82"/><polygon class="cls-5" points="215.04 346.38 253.58 346.38 273.75 64.99 225.76 50.65 197.45 50.65 149.49 64.99 169.65 346.38 208.21 346.38 215.04 346.38"/><polygon class="cls-4" points="326.65 346.38 324.04 329.69 327.25 315.23 96 315.23 99.19 329.69 96.56 346.38 326.65 346.38"/><polygon class="cls-4" points="197.45 50.65 47.33 95.56 47.55 96.51 375.71 96.51 375.9 95.56 225.76 50.65 197.45 50.65"/><polygon class="cls-4" points="360.77 700.67 62.46 700.67 47.33 659.67 375.9 659.67 360.77 700.67"/><path class="cls-1" d="M360.77,700.67l15.13-41-51.85-329.98,38.98-175.95c2.29-.51,4.68-1,7.16-1.42,1.59-.29,3.29-.51,4.95-.75,1.29-.19,2.53-.39,3.84-.56,3.03-.45,5.72-.64,8.82-.91,2.68.04,5.95-.21,8.48.07,2.89.06,5.21.45,7.79.83.97.35,2.03.66,3.15.94,1.01.37,1.73.84,2.79,1.21,1.63.94,3.3,1.98,4.75,3.69.93.65,1.26,2,1.95,3.04.31.58.7,1.1.97,1.72l.68,2.13c1.16,2.67,1.56,6.2,2.22,9.63l.12.66c.02-.34,0,.89.03-.75v.11l.02.2.02.43.03,1.65.07,3.34-.02,6.67c-.03,4.47-.06,8.89-.1,13.32-.26,4.24-.55,8.48-.82,12.69-.85,8.41-1.46,16.62-2.45,24.75-1.07,8.2-2.56,16.04-3.74,23.52-1.21,7.46-2.52,14.5-4.02,20.92-1.42,6.46-3.09,12.31-4.44,17.49-1.29,5.22-2.73,9.68-3.77,13.4-1.06,3.71-2.11,6.56-2.7,8.54-.66,1.96-.98,3-.98,3-.09.21-.15.43-.19.64-1.78,6.57,2.11,13.32,8.67,15.08,6.58,1.75,13.32-2.13,15.09-8.7l.41-1.59s4.67-17.36,11.66-43.39c1.75-6.52,3.12-13.69,4.85-21.24,1.68-7.54,3.42-15.52,5.24-23.78,1.73-8.33,3.17-17.25,4.79-26.19.81-4.49,1.61-9.04,2.4-13.59.52-4.42,1.05-8.84,1.59-13.29l.78-6.64.36-3.31.2-1.68.03-.4.02-.21v-.1l.03-.94-.02-1.01c-.11-5.42-.02-10.7-1.2-16.43l-.7-4.23c-.38-1.42-.87-2.88-1.33-4.32-1.02-2.85-1.73-5.73-3.38-8.5-2.72-5.62-6.63-10.77-11.03-15.1-2.3-1.98-4.59-4.1-6.97-5.77-2.42-1.53-4.85-3.03-7.26-4.45-4.81-2.29-9.64-4.39-14.1-5.64-4.61-1.64-8.76-2.29-12.95-3.3-3.98-.64-8.01-1.45-11.58-1.8-1.76-.24-3.32-.36-4.98-.54v-.02c-.93-.11-1.77-.18-2.69-.25-.39-.04-.81-.1-1.18-.13l1.32-5.96h.02l.19-.95-102.15-30.56-47.99-14.35h-3.64s14.02-37.11,6.44-45.84c-2.8-3.2-9.86-4.81-16.95-4.81v700.67h149.16Z"/></g></g></g></svg>