<?xml version="1.0" encoding="UTF-8"?><svg xmlns="http://www.w3.org/2000/svg" viewBox="0 0 538.37 718.12"><defs><style>.cls-1{opacity:.5;}.cls-1,.cls-2,.cls-3,.cls-4,.cls-5,.cls-6{stroke-width:0px;}.cls-1,.cls-3{fill:#3f2c26;}.cls-1,.cls-4{mix-blend-mode:multiply;}.cls-2,.cls-4{fill:#cfc9be;}.cls-7{isolation:isolate;}.cls-5{fill:#fff;}.cls-6{fill:#a25c02;}</style></defs><g class="cls-7"><g id="Calque_1"><rect class="cls-3" x="98.76" width="340.85" height="101.26"/><path class="cls-2" d="M538.37,654.04c0,35.27-32.83,64.08-72.96,64.08H72.96c-40.14,0-72.96-28.81-72.96-64.08L27.46,121.24c0-35.25,32.84-64.09,72.96-64.09h337.53c40.12,0,72.95,28.84,72.95,64.09l27.47,532.81Z"/><rect class="cls-4" x="98.76" y="103.12" width="340.85" height="566.81"/><rect class="cls-3" x="72.15" y="609.58" width="394.07" height="36.93"/><rect class="cls-6" x="224.33" y="294.93" width="18.31" height="139.42"/><rect class="cls-3" x="217.41" y="265.72" width="32.15" height="24.6"/><rect class="cls-3" x="221.16" y="290.32" width="24.67" height="9.21"/><rect class="cls-6" x="295.71" y="294.93" width="18.31" height="139.42"/><rect class="cls-3" x="288.79" y="265.72" width="32.17" height="24.6"/><rect class="cls-1" x="217.41" y="265.72" width="32.15" height="20.02"/><rect class="cls-1" x="288.79" y="265.72" width="32.17" height="20.02"/><rect class="cls-3" x="292.54" y="290.32" width="24.66" height="9.21"/><rect class="cls-1" x="221.16" y="290.32" width="24.67" height="3.34"/><rect class="cls-1" x="292.54" y="290.32" width="24.66" height="3.34"/><path class="cls-5" d="M336.7,546.58c-41.28,0-83.03-19-83.03-55.32,0-17.25,8.67-32.4,24.42-42.64,13.68-8.91,32.16-13.8,52-13.8,8.43,0,16.63-.76,24.54-1.47,7-.64,13.59-1.25,19.6-1.25,7.99,0,32.32,0,32.32,28.97,0,34.03-27.86,85.5-69.86,85.5ZM374.23,448.88c-5.24,0-11.49.57-18.08,1.17-7.9.71-16.89,1.53-26.06,1.53-28.73,0-59.66,12.42-59.66,39.68,0,24.13,33.68,38.56,66.27,38.56,30.29,0,53.08-41.7,53.08-68.74,0-9.16-2.25-12.21-15.55-12.21Z"/><path class="cls-5" d="M225.64,595.67h72.8c41.23-24.31,70.71-88.7,70.71-164.34,0-7.27-.26-14.43-.79-21.47h-212.61c-.53,7.04-.8,14.2-.8,21.47,0,75.64,29.47,140.03,70.7,164.34Z"/><path class="cls-5" d="M172.67,595.67c.95,6.76,6.69,11.98,13.72,11.98h151.31c7.03,0,12.77-5.23,13.71-11.98h-178.74Z"/><path class="cls-3" d="M411.35,282.62v-102.98c0-25.18-20.6-45.78-45.77-45.78h-192.78c-25.17,0-45.77,20.6-45.77,45.78v102.98h284.32Z"/><path class="cls-2" d="M302.54,184.21c0,18.44-14.94,33.37-33.36,33.37s-33.35-14.93-33.35-33.37,14.92-33.35,33.35-33.35,33.36,14.93,33.36,33.35Z"/><path class="cls-2" d="M212.96,175.06c0,5.04-4.11,9.15-9.15,9.15h-35.75c-5.04,0-9.15-4.11-9.15-9.15v-4.92c0-5.04,4.11-9.16,9.15-9.16h35.75c5.04,0,9.15,4.12,9.15,9.16v4.92Z"/><path class="cls-2" d="M212.96,214.55c0,5.04-4.11,9.15-9.15,9.15h-35.75c-5.04,0-9.15-4.11-9.15-9.15v-4.93c0-5.02,4.11-9.16,9.15-9.16h35.75c5.04,0,9.15,4.14,9.15,9.16v4.93Z"/><path class="cls-2" d="M379.47,175.06c0,5.04-4.13,9.15-9.15,9.15h-35.77c-5.02,0-9.15-4.11-9.15-9.15v-4.92c0-5.04,4.13-9.16,9.15-9.16h35.77c5.02,0,9.15,4.12,9.15,9.16v4.92Z"/><path class="cls-2" d="M379.47,214.55c0,5.04-4.13,9.15-9.15,9.15h-35.77c-5.02,0-9.15-4.11-9.15-9.15v-4.93c0-5.02,4.13-9.16,9.15-9.16h35.77c5.02,0,9.15,4.14,9.15,9.16v4.93Z"/><rect class="cls-4" x="127.03" y="282.62" width="284.32" height="12.31"/></g></g></svg>