<?xml version="1.0" encoding="UTF-8"?><svg xmlns="http://www.w3.org/2000/svg" xmlns:xlink="http://www.w3.org/1999/xlink" viewBox="0 0 74.48 61.74"><defs><style>.cls-1{fill:url(#linear-gradient-2);}.cls-1,.cls-2,.cls-3,.cls-4,.cls-5,.cls-6,.cls-7,.cls-8,.cls-9,.cls-10,.cls-11{stroke-width:0px;}.cls-1,.cls-2,.cls-4,.cls-9{mix-blend-mode:multiply;}.cls-2{fill:url(#linear-gradient-3);}.cls-3{fill:#c19361;}.cls-4{fill:url(#linear-gradient);}.cls-5{fill:#a17743;}.cls-6{fill:#483e34;}.cls-7{fill:#e0d3c3;opacity:.7;}.cls-8{opacity:.3;}.cls-8,.cls-11{fill:#fff;}.cls-9{fill:#ebd4bd;}.cls-12{isolation:isolate;}.cls-10{fill:#382716;}</style><linearGradient id="linear-gradient" x1="63.71" y1="31.47" x2="-.2" y2="44.33" gradientUnits="userSpaceOnUse"><stop offset="0" stop-color="#fff" stop-opacity="0"/><stop offset="1" stop-color="#e4c7a1"/></linearGradient><linearGradient id="linear-gradient-2" x1="31.21" y1="23.32" x2="29.37" y2="60.88" xlink:href="#linear-gradient"/><linearGradient id="linear-gradient-3" x1="133.46" y1="-50.85" x2="18.45" y2="47.84" xlink:href="#linear-gradient"/></defs><g class="cls-12"><g id="Calque_2"><g id="OBJECTS"><path class="cls-6" d="M11.72,4.25c0,1.01-.82,1.83-1.83,1.83s-1.83-.82-1.83-1.83.82-1.83,1.83-1.83,1.83.82,1.83,1.83Z"/><path class="cls-6" d="M44.71,8.58c0,.46-.37.83-.83.83s-.83-.37-.83-.83.37-.83.83-.83.83.37.83.83Z"/><path class="cls-6" d="M29.71,2.08c0,1.15-.93,2.08-2.08,2.08s-2.08-.93-2.08-2.08.93-2.08,2.08-2.08,2.08.93,2.08,2.08Z"/><path class="cls-8" d="M0,12.84l62.69,1.17s-1.42,24.87-5.05,47.66l-51.55.06S1.81,42.89,0,12.84Z"/><path class="cls-5" d="M6.39,20.32S2.22,3.66,16.05,1.17c13.83-2.5,21.66,8.5,21.66,8.5,0,0,20.02-7.48,18.67,9.59-1.35,17.07-49.16,2.74-49.16,2.74"/><path class="cls-3" d="M37.71,9.66S29.88-1.33,16.05,1.17c-6.04,1.09-8.65,4.88-9.66,8.81,1.27-3.83,4.11-7.41,10.16-8.12,13.95-1.65,21.1,9.81,21.1,9.81,0,0,19.91-6.08,18.13,10.07.32-.74.54-1.56.61-2.48,1.35-17.07-18.67-9.59-18.67-9.59Z"/><path class="cls-9" d="M56.43,18.22c-9.66-4.2-24.91,1.25-33.22,1.48-8.99.25-15.62-7.37-9.62-14.49,6-7.12,18.74-.5,18.74-.5v-.04C28.66,2.15,23.15-.12,16.05,1.17,2.22,3.66,6.39,20.32,6.39,20.32l.83,1.67s47.81,14.33,49.16-2.74c.03-.36.04-.7.05-1.03Z"/><path class="cls-9" d="M56.43,18.22c-9.66-4.2-24.91,1.25-33.22,1.48-8.99.25-15.62-7.37-9.62-14.49,6-7.12,18.74-.5,18.74-.5v-.04C28.66,2.15,23.15-.12,16.05,1.17,2.22,3.66,6.39,20.32,6.39,20.32l.83,1.67s47.81,14.33,49.16-2.74c.03-.36.04-.7.05-1.03Z"/><path class="cls-11" d="M0,12.84c1.81,30.05,6.09,48.89,6.09,48.89l51.55-.06c3.63-22.8,5.05-47.66,5.05-47.66L0,12.84ZM54.87,59.1l-46.12.06S4.93,42.3,3.3,15.42l56.09,1.04s-1.27,22.25-4.52,42.64Z"/><path class="cls-11" d="M61.85,25.41c-.13,0-.25,0-.38,0-.17,2.09-.38,4.4-.61,6.88.32-.05.65-.09.99-.09,3.22,0,5.83,2.61,5.83,5.83s-2.61,5.83-5.83,5.83c-.76,0-1.48-.15-2.14-.41-.26,2.24-.53,4.54-.83,6.86.95.23,1.95.36,2.97.36,6.98,0,12.63-5.65,12.63-12.63s-5.65-12.63-12.63-12.63Z"/><path class="cls-10" d="M23.31,21.39c-10.42.39-15.16-.95-16.9-1.66,1.61,20.94,4.53,37.31,4.53,37.31l41.65-.05c2.11-13.25,3.29-30.86,3.79-37.74-12.57-2.86-20.36,1.67-33.07,2.14Z"/><path class="cls-4" d="M23.31,21.39c-10.42.39-15.16-.95-16.9-1.66,1.61,20.94,4.53,37.31,4.53,37.31l41.65-.05c2.11-13.25,3.29-30.86,3.79-37.74-12.57-2.86-20.36,1.67-33.07,2.14Z"/><path class="cls-1" d="M23.31,21.39c-10.42.39-15.16-.95-16.9-1.66,1.61,20.94,4.53,37.31,4.53,37.31l41.65-.05c2.11-13.25,3.29-30.86,3.79-37.74-12.57-2.86-20.36,1.67-33.07,2.14Z"/><path class="cls-7" d="M23.44,29.01c12.47-.46,20.21-4.83,32.39-2.29.23-3.06.42-5.65.55-7.48-12.57-2.86-20.36,1.67-33.07,2.14-10.42.39-15.16-.95-16.9-1.66.21,2.7.44,5.31.68,7.83,2.1.73,6.88,1.8,16.35,1.45Z"/><path class="cls-2" d="M45.72,54.16c-17.1,0-30.96-14.46-30.96-27.98,0-1.66.21-3.28.61-4.85-5.06-.31-7.75-1.11-8.96-1.6,1.61,20.94,4.53,37.31,4.53,37.31l41.65-.05c.19-1.17.37-2.35.54-3.54-2.37.46-4.85.71-7.4.71Z"/><path class="cls-8" d="M20.47,19.93l-11.67-.22c1.3,21.61,4.38,35.16,4.38,35.16h8.16c-.75-18.32-.87-34.94-.87-34.94Z"/><path class="cls-6" d="M26.55,8.08c0,1.06-.86,1.92-1.92,1.92s-1.92-.86-1.92-1.92.86-1.92,1.92-1.92,1.92.86,1.92,1.92Z"/><path class="cls-6" d="M20.72,5.33c0,.51-.41.92-.92.92s-.92-.41-.92-.92.41-.92.92-.92.92.41.92.92Z"/><path class="cls-6" d="M53.37,9.08c0,.87-.71,1.58-1.58,1.58s-1.58-.71-1.58-1.58.71-1.58,1.58-1.58,1.58.71,1.58,1.58Z"/><path class="cls-6" d="M31.96,6.41c0,.46-.37.83-.83.83s-.83-.37-.83-.83.37-.83.83-.83.83.37.83.83Z"/></g></g></g></svg>