<?xml version="1.0" encoding="UTF-8"?><svg id="Calque_2" xmlns="http://www.w3.org/2000/svg" viewBox="0 0 124.63 132.89"><defs><style>.cls-1{fill:#592c28;stroke-width:0px;}</style></defs><g id="Calque_1-2"><path class="cls-1" d="M118.54,31.57c-4.14-7.52-11.25-14.12-19.81-14.72-8.57-.6-16.51,4.92-21.89,11.62-10.38,12.92-13.7,30.05-15.41,46.54-1.79-9.84-3.57-19.67-5.36-29.51-2.17-11.94-4.56-24.39-12.01-33.97C36.61,1.95,22.42-3.57,11.98,2.61,2,8.5-.41,21.85.05,33.43c1.28,42.18,26.78,66.96,51.98,97.24.74.89,1.55,1.82,2.66,2.12,1.2.32,2.45-.17,3.58-.66,34.75-15.14,83.59-58.21,60.26-100.55Z"/></g></svg>