<?xml version="1.0" encoding="UTF-8"?><svg id="Calque_1" xmlns="http://www.w3.org/2000/svg" viewBox="0 0 151.31 134.47"><defs><style>.cls-1{fill:#592c28;stroke-width:0px;}</style></defs><path class="cls-1" d="M7.26,68.51C.33,55.89-4.05,38.87,5.53,28.12c9.41-10.58,26.97-8.37,39.08-1.03,12.01,7.28,21.19,18.3,30.14,29.11,3.54-12.17,8.35-23.97,14.33-35.16,4.07-7.63,9.12-15.36,16.97-18.99,13.51-6.25,30,2.65,37.86,15.29,4.57,7.35,7.15,15.93,7.39,24.59.47,17.24-8.07,33.41-17.79,47.66-8.54,12.52-18.17,24.29-28.75,35.13-3.57,3.66-7.4,7.31-12.19,9.08-12.29,4.56-37.71-14.79-47.45-22.03-15.49-11.51-28.56-26.31-37.86-43.25Z"/></svg>