<?xml version="1.0" encoding="UTF-8"?><svg xmlns="http://www.w3.org/2000/svg" xmlns:xlink="http://www.w3.org/1999/xlink" viewBox="0 0 74.48 48.9"><defs><style>.cls-1{fill:url(#linear-gradient-2);}.cls-1,.cls-2,.cls-3,.cls-4,.cls-5,.cls-6,.cls-7,.cls-8{stroke-width:0px;}.cls-1,.cls-2,.cls-4,.cls-6{mix-blend-mode:multiply;}.cls-2{fill:url(#linear-gradient-3);}.cls-3{fill:#46331a;}.cls-4{fill:url(#linear-gradient);}.cls-5{opacity:.3;}.cls-5,.cls-7{fill:#fff;}.cls-6,.cls-8{fill:#e4c7a1;}.cls-9{isolation:isolate;}.cls-8{opacity:.8;}</style><linearGradient id="linear-gradient" x1="52.78" y1="28.97" x2="7.45" y2="33.37" gradientUnits="userSpaceOnUse"><stop offset="0" stop-color="#fff" stop-opacity="0"/><stop offset="1" stop-color="#e4c7a1"/></linearGradient><linearGradient id="linear-gradient-2" x1="31.19" y1="21.71" x2="27.83" y2="47.09" xlink:href="#linear-gradient"/><linearGradient id="linear-gradient-3" x1="77.43" y1="-16.98" x2="18.75" y2="42.48" xlink:href="#linear-gradient"/></defs><g class="cls-9"><g id="Calque_2"><g id="Calque_1-2"><path class="cls-5" d="M0,0l62.69,1.16s-1.42,24.87-5.05,47.66l-51.55.07S1.81,30.05,0,0Z"/><path class="cls-7" d="M0,0c1.81,30.05,6.09,48.9,6.09,48.9l51.55-.07c3.63-22.8,5.05-47.66,5.05-47.66L0,0ZM54.87,46.26l-46.12.06S4.93,29.46,3.3,2.58l56.08,1.04s-1.27,22.25-4.52,42.64Z"/><path class="cls-7" d="M61.85,12.56c-.13,0-.25,0-.38,0-.17,2.09-.38,4.4-.61,6.88.32-.05.65-.09.99-.09,3.22,0,5.83,2.61,5.83,5.83s-2.61,5.83-5.83,5.83c-.76,0-1.48-.15-2.15-.41-.26,2.24-.53,4.54-.83,6.86.95.23,1.95.36,2.97.36,6.97,0,12.63-5.65,12.63-12.63s-5.65-12.63-12.63-12.63Z"/><path class="cls-3" d="M22.54,23.44c-8.01.28-12.87-2.99-14.97-4.85,1.6,15.82,3.74,25.25,3.74,25.25l40.9-.05c1.33-8.39,2.29-17.13,2.94-24.1-10.41-7.44-22.38,3.39-32.61,3.75Z"/><path class="cls-4" d="M22.54,23.44c-8.01.28-12.87-2.99-14.97-4.85,1.6,15.82,3.74,25.25,3.74,25.25l40.9-.05c1.33-8.39,2.29-17.13,2.94-24.1-10.41-7.44-22.38,3.39-32.61,3.75Z"/><path class="cls-1" d="M22.54,23.44c-8.01.28-12.87-2.99-14.97-4.85,1.6,15.82,3.74,25.25,3.74,25.25l40.9-.05c1.33-8.39,2.29-17.13,2.94-24.1-10.41-7.44-22.38,3.39-32.61,3.75Z"/><path class="cls-6" d="M55.08,20.43c-10.39-7.34-22.33,3.44-32.54,3.8-7.9.28-12.74-2.9-14.88-4.77.22,2.15.45,4.18.69,6.07,3.67,1.4,8.99,2.64,14.19,2.46,9.12-.32,22.23-8.97,32.35-5.56.07-.68.13-1.34.19-1.99Z"/><path class="cls-8" d="M22.54,27.2c9.14-.32,22.29-9.01,32.42-5.54.07-.67.13-1.33.19-1.97-10.41-7.44-22.38,3.39-32.61,3.75-8.01.28-12.87-2.99-14.97-4.85.22,2.16.45,4.2.68,6.11,3.67,1.42,9.04,2.68,14.29,2.5Z"/><path class="cls-5" d="M20.47,7.09l-11.67-.22c1.3,21.61,4.38,35.16,4.38,35.16h8.16c-.75-18.32-.87-34.94-.87-34.94Z"/><path class="cls-2" d="M39.7,41.61c-11.27,0-20.8-7.93-23.96-18.84-4.07-1.01-6.75-2.91-8.18-4.17,1.6,15.82,3.74,25.25,3.74,25.25l40.9-.05c.33-2.11.65-4.24.94-6.36-3.89,2.64-8.49,4.17-13.44,4.17Z"/></g></g></g></svg>