<?xml version="1.0" encoding="UTF-8"?><svg xmlns="http://www.w3.org/2000/svg" xmlns:xlink="http://www.w3.org/1999/xlink" viewBox="0 0 151.5 48.9"><defs><style>.cls-1{fill:url(#linear-gradient-2);}.cls-1,.cls-2,.cls-3,.cls-4,.cls-5,.cls-6,.cls-7,.cls-8{stroke-width:0px;}.cls-1,.cls-2,.cls-4,.cls-6{mix-blend-mode:multiply;}.cls-2{fill:url(#linear-gradient-3);}.cls-3{fill:#46331a;}.cls-4{fill:url(#linear-gradient);}.cls-5{opacity:.3;}.cls-5,.cls-7{fill:#fff;}.cls-6,.cls-8{fill:#e4c7a1;}.cls-9{isolation:isolate;}.cls-8{opacity:.8;}</style><linearGradient id="linear-gradient" x1="129.81" y1="28.97" x2="84.47" y2="33.37" gradientUnits="userSpaceOnUse"><stop offset="0" stop-color="#fff" stop-opacity="0"/><stop offset="1" stop-color="#e4c7a1"/></linearGradient><linearGradient id="linear-gradient-2" x1="108.22" y1="21.71" x2="104.85" y2="47.09" xlink:href="#linear-gradient"/><linearGradient id="linear-gradient-3" x1="154.46" y1="-16.98" x2="95.78" y2="42.48" xlink:href="#linear-gradient"/></defs><g class="cls-9"><g id="Calque_1"><path class="cls-5" d="M77.03,0l62.69,1.16s-1.42,24.87-5.05,47.66l-51.55.07s-4.27-18.85-6.09-48.9Z"/><path class="cls-7" d="M77.03,0c1.81,30.05,6.09,48.9,6.09,48.9l51.55-.07c3.63-22.8,5.05-47.66,5.05-47.66l-62.69-1.16ZM131.9,46.26l-46.12.06s-3.82-16.86-5.45-43.74l56.08,1.04s-1.27,22.25-4.52,42.64Z"/><path class="cls-7" d="M138.88,12.56c-.13,0-.25,0-.38,0-.17,2.09-.38,4.4-.61,6.88.32-.05.65-.09.99-.09,3.22,0,5.83,2.61,5.83,5.83s-2.61,5.83-5.83,5.83c-.76,0-1.48-.15-2.15-.41-.26,2.24-.53,4.54-.83,6.86.95.23,1.95.36,2.97.36,6.97,0,12.63-5.65,12.63-12.63s-5.65-12.63-12.63-12.63Z"/><path class="cls-3" d="M99.57,23.44c-8.01.28-12.87-2.99-14.97-4.85,1.6,15.82,3.74,25.25,3.74,25.25l40.9-.05c1.33-8.39,2.29-17.13,2.94-24.1-10.41-7.44-22.38,3.39-32.61,3.75Z"/><path class="cls-4" d="M99.57,23.44c-8.01.28-12.87-2.99-14.97-4.85,1.6,15.82,3.74,25.25,3.74,25.25l40.9-.05c1.33-8.39,2.29-17.13,2.94-24.1-10.41-7.44-22.38,3.39-32.61,3.75Z"/><path class="cls-1" d="M99.57,23.44c-8.01.28-12.87-2.99-14.97-4.85,1.6,15.82,3.74,25.25,3.74,25.25l40.9-.05c1.33-8.39,2.29-17.13,2.94-24.1-10.41-7.44-22.38,3.39-32.61,3.75Z"/><path class="cls-6" d="M132.1,20.43c-10.39-7.34-22.33,3.44-32.54,3.8-7.9.28-12.74-2.9-14.88-4.77.22,2.15.45,4.18.69,6.07,3.67,1.4,8.99,2.64,14.19,2.46,9.12-.32,22.23-8.97,32.35-5.56.07-.68.13-1.34.19-1.99Z"/><path class="cls-8" d="M99.57,27.2c9.14-.32,22.29-9.01,32.42-5.54.07-.67.13-1.33.19-1.97-10.41-7.44-22.38,3.39-32.61,3.75-8.01.28-12.87-2.99-14.97-4.85.22,2.16.45,4.2.68,6.11,3.67,1.42,9.04,2.68,14.29,2.5Z"/><path class="cls-5" d="M97.5,7.09l-11.67-.22c1.3,21.61,4.38,35.16,4.38,35.16h8.16c-.75-18.32-.87-34.94-.87-34.94Z"/><path class="cls-2" d="M116.73,41.61c-11.27,0-20.8-7.93-23.96-18.84-4.07-1.01-6.75-2.91-8.18-4.17,1.6,15.82,3.74,25.25,3.74,25.25l40.9-.05c.33-2.11.65-4.24.94-6.36-3.89,2.64-8.49,4.17-13.44,4.17Z"/><path class="cls-7" d="M9.7,20.61l-4-6.95h-2.18v6.95H.67V3.23h6c1.33,0,2.46.23,3.39.7s1.62,1.09,2.08,1.88c.46.78.69,1.66.69,2.62,0,1.13-.33,2.16-.99,3.09-.66.92-1.67,1.55-3.04,1.89l4.3,7.2h-3.4ZM3.52,11.38h3.15c1.07,0,1.87-.27,2.41-.8.54-.53.81-1.25.81-2.15s-.27-1.6-.8-2.11c-.53-.51-1.34-.76-2.42-.76h-3.15v5.82Z"/><path class="cls-7" d="M29,14.78h-10.53c.08,1.1.49,1.98,1.22,2.65s1.63,1,2.7,1c1.53,0,2.62-.64,3.25-1.93h3.08c-.42,1.27-1.17,2.3-2.26,3.11s-2.45,1.21-4.06,1.21c-1.32,0-2.5-.3-3.54-.89-1.04-.59-1.86-1.42-2.45-2.5-.59-1.07-.89-2.32-.89-3.74s.29-2.66.86-3.74c.58-1.07,1.38-1.9,2.43-2.49,1.04-.58,2.24-.88,3.59-.88s2.46.28,3.48.85c1.02.57,1.81,1.36,2.38,2.39.57,1.03.85,2.2.85,3.54,0,.52-.03.98-.1,1.4ZM26.12,12.48c-.02-1.05-.39-1.89-1.12-2.52-.73-.63-1.64-.95-2.73-.95-.98,0-1.83.31-2.52.94-.7.62-1.12,1.47-1.25,2.54h7.62ZM24.9,3.13l-5.52,2.73v-2.1l5.52-3.05v2.42Z"/><path class="cls-7" d="M37.22,18.06l3.9-11.23h3.03l-5.25,13.77h-3.4l-5.22-13.77h3.05l3.9,11.23Z"/><path class="cls-7" d="M58.82,14.78h-10.53c.08,1.1.49,1.98,1.22,2.65s1.63,1,2.7,1c1.53,0,2.62-.64,3.25-1.93h3.08c-.42,1.27-1.17,2.3-2.26,3.11s-2.45,1.21-4.06,1.21c-1.32,0-2.5-.3-3.54-.89-1.04-.59-1.86-1.42-2.45-2.5-.59-1.07-.89-2.32-.89-3.74s.29-2.66.86-3.74c.58-1.07,1.38-1.9,2.43-2.49,1.04-.58,2.24-.88,3.59-.88s2.46.28,3.48.85c1.02.57,1.81,1.36,2.38,2.39.57,1.03.85,2.2.85,3.54,0,.52-.03.98-.1,1.4ZM55.95,12.48c-.02-1.05-.39-1.89-1.12-2.52-.73-.63-1.64-.95-2.73-.95-.98,0-1.83.31-2.52.94-.7.62-1.12,1.47-1.25,2.54h7.62Z"/><path class="cls-7" d="M61.87,4.48c-.35-.35-.53-.78-.53-1.3s.17-.95.53-1.3c.35-.35.78-.52,1.3-.52s.92.17,1.27.52c.35.35.53.78.53,1.3s-.17.95-.53,1.3c-.35.35-.77.52-1.27.52s-.95-.17-1.3-.52ZM64.57,6.83v13.77h-2.85V6.83h2.85Z"/><path class="cls-7" d="M71.17,2.11v18.5h-2.85V2.11h2.85Z"/><path class="cls-7" d="M20.42,28.62v16.99h-5.3v-8.47l-2.62,8.47h-4.56l-2.62-8.47v8.47H0v-16.99h6.53l3.74,10.2,3.65-10.2h6.5Z"/><path class="cls-7" d="M22.83,35.13c.49-1.05,1.16-1.85,2-2.4s1.8-.83,2.86-.83c.88,0,1.64.18,2.28.54.64.36,1.13.85,1.46,1.48v-1.85h5.3v13.54h-5.3v-1.85c-.34.62-.82,1.12-1.46,1.48-.64.36-1.4.54-2.28.54-1.06,0-2.01-.28-2.86-.83s-1.52-1.35-2-2.4c-.49-1.05-.73-2.28-.73-3.71s.24-2.66.73-3.71ZM30.89,37.16c-.37-.4-.84-.6-1.42-.6s-1.05.2-1.42.6c-.37.4-.55.96-.55,1.68s.18,1.28.55,1.68c.37.4.84.6,1.42.6s1.05-.2,1.42-.6c.37-.4.55-.96.55-1.68s-.18-1.28-.55-1.68Z"/><path class="cls-7" d="M47.57,41.07v4.54h-2.02c-3.71,0-5.57-1.85-5.57-5.54v-3.55h-1.68v-4.44h1.68v-3.26h5.33v3.26h2.21v4.44h-2.21v3.65c0,.32.08.55.23.7.15.14.4.22.76.22h1.27Z"/><path class="cls-7" d="M50.06,30.25c-.56-.5-.84-1.12-.84-1.87s.28-1.4.84-1.91c.56-.5,1.3-.76,2.23-.76s1.65.25,2.21.76c.56.5.84,1.14.84,1.91s-.28,1.38-.84,1.87c-.56.5-1.3.74-2.21.74s-1.67-.25-2.23-.74ZM54.94,32.07v13.54h-5.33v-13.54h5.33Z"/><path class="cls-7" d="M70.45,33.54c.87,1.04,1.31,2.45,1.31,4.22v7.85h-5.3v-7.18c0-.64-.17-1.15-.52-1.52-.34-.38-.8-.56-1.38-.56s-1.06.19-1.39.56c-.34.38-.5.88-.5,1.52v7.18h-5.33v-13.54h5.33v2.06c.42-.64.97-1.16,1.67-1.56.7-.4,1.52-.6,2.48-.6,1.55,0,2.76.52,3.64,1.56Z"/></g></g></svg>